<svg width="23" height="23" viewBox="0 0 23 23" fill="none" xmlns="http://www.w3.org/2000/svg">
<mask id="path-1-inside-1_483_4303" fill="white">
<path fill-rule="evenodd" clip-rule="evenodd" d="M13.8841 8.09063L20.6248 8.6625L15.506 13.0969L17.0435 19.6875L11.2498 16.1906L5.45601 19.6875L6.98413 13.0969L1.87476 8.6625L8.61538 8.09063L11.2498 1.875L13.8841 8.09063Z"/>
</mask>
<path fill-rule="evenodd" clip-rule="evenodd" d="M13.8841 8.09063L20.6248 8.6625L15.506 13.0969L17.0435 19.6875L11.2498 16.1906L5.45601 19.6875L6.98413 13.0969L1.87476 8.6625L8.61538 8.09063L11.2498 1.875L13.8841 8.09063Z" fill="#FFED61"/>
<path d="M20.6248 8.6625L21.3614 9.5128L23.3767 7.76693L20.7199 7.54153L20.6248 8.6625ZM13.8841 8.09063L12.8483 8.52963L13.1131 9.15425L13.789 9.2116L13.8841 8.09063ZM15.506 13.0969L14.7694 12.2466L14.2562 12.6912L14.4104 13.3525L15.506 13.0969ZM17.0435 19.6875L16.4622 20.6507L18.7448 22.0284L18.1391 19.4319L17.0435 19.6875ZM11.2498 16.1906L11.8311 15.2275L11.2498 14.8766L10.6684 15.2275L11.2498 16.1906ZM5.45601 19.6875L4.36008 19.4334L3.759 22.0258L6.03733 20.6507L5.45601 19.6875ZM6.98413 13.0969L8.08006 13.351L8.23304 12.6912L7.72152 12.2472L6.98413 13.0969ZM1.87476 8.6625L1.77965 7.54153L-0.87382 7.76665L1.13737 9.51214L1.87476 8.6625ZM8.61538 8.09063L8.71048 9.2116L9.38646 9.15425L9.65119 8.52963L8.61538 8.09063ZM11.2498 1.875L12.2856 1.43599L11.2498 -1.00792L10.2139 1.43599L11.2498 1.875ZM20.7199 7.54153L13.9792 6.96965L13.789 9.2116L20.5297 9.78347L20.7199 7.54153ZM16.2426 13.9472L21.3614 9.5128L19.8881 7.8122L14.7694 12.2466L16.2426 13.9472ZM18.1391 19.4319L16.6016 12.8413L14.4104 13.3525L15.9479 19.9431L18.1391 19.4319ZM10.6684 17.1538L16.4622 20.6507L17.6248 18.7243L11.8311 15.2275L10.6684 17.1538ZM6.03733 20.6507L11.8311 17.1538L10.6684 15.2275L4.87468 18.7243L6.03733 20.6507ZM5.8882 12.8428L4.36008 19.4334L6.55193 19.9416L8.08006 13.351L5.8882 12.8428ZM1.13737 9.51214L6.24674 13.9465L7.72152 12.2472L2.61215 7.81286L1.13737 9.51214ZM8.52028 6.96965L1.77965 7.54153L1.96986 9.78347L8.71048 9.2116L8.52028 6.96965ZM10.2139 1.43599L7.57957 7.65162L9.65119 8.52963L12.2856 2.31401L10.2139 1.43599ZM14.9199 7.65162L12.2856 1.43599L10.2139 2.31401L12.8483 8.52963L14.9199 7.65162Z" fill="black" mask="url(#path-1-inside-1_483_4303)"/>
</svg>
