<svg width="24" height="24" viewBox="0 0 24 24" fill="none" xmlns="http://www.w3.org/2000/svg">
<g id="Phosphor Icons Regular / Lightbulb">
<path id="Vector (Stroke)" fill-rule="evenodd" clip-rule="evenodd" d="M7.5 21.75C7.5 21.3358 7.83579 21 8.25 21H15.75C16.1642 21 16.5 21.3358 16.5 21.75C16.5 22.1642 16.1642 22.5 15.75 22.5H8.25C7.83579 22.5 7.5 22.1642 7.5 21.75Z" fill="#757575"/>
<path id="Vector (Stroke)_2" fill-rule="evenodd" clip-rule="evenodd" d="M15.8178 4.18142C14.6488 3.37955 13.2569 2.9661 11.8397 2.9997C8.18229 3.08397 5.23319 6.13079 5.25007 9.79333L5.25008 9.79433C5.25341 10.8115 5.4882 11.8147 5.93668 12.7277C6.38515 13.6407 7.03555 14.4397 7.83858 15.0641L7.3782 15.6562L7.84233 15.067C8.20042 15.3491 8.49043 15.7082 8.69085 16.1177C8.89126 16.5271 8.99695 16.9764 9.00006 17.4323L9.0001 17.4374L9.00008 17.9999H15.0001L15.0001 17.436C15.001 16.9757 15.1071 16.5218 15.3103 16.1088C15.5131 15.6968 15.8071 15.3365 16.1701 15.0553C17.2841 14.18 18.0945 12.9764 18.4863 11.6148C18.8785 10.2525 18.8317 8.80136 18.3527 7.46711C17.8737 6.13287 16.9868 4.98329 15.8178 4.18142ZM6.91574 16.2466C5.93397 15.4827 5.13878 14.5055 4.59033 13.389C4.0415 12.2717 3.75416 11.0441 3.75008 9.79924L4.50008 9.79678L3.75009 9.80024C3.75009 9.7999 3.75009 9.79957 3.75008 9.79924C3.73 5.32478 7.32484 1.60343 11.8045 1.50011C11.8044 1.50011 11.8046 1.50011 11.8045 1.50011C13.5365 1.45916 15.2376 1.96448 16.6663 2.94445C18.0951 3.92451 19.1791 5.32955 19.7645 6.96029C20.3499 8.59104 20.4071 10.3647 19.9278 12.0297C19.4486 13.6948 18.4573 15.1667 17.0945 16.2367L17.09 16.2402C16.9068 16.3818 16.7584 16.5634 16.6562 16.7712C16.554 16.9787 16.5006 17.2069 16.5001 17.4382C16.5001 17.438 16.5001 17.4384 16.5001 17.4382V17.9999C16.5001 18.3977 16.342 18.7793 16.0607 19.0606C15.7794 19.3419 15.3979 19.4999 15.0001 19.4999H9.00008C8.60226 19.4999 8.22073 19.3419 7.93942 19.0606C7.65812 18.7793 7.50008 18.3977 7.50008 17.9999V17.4402C7.49816 17.2103 7.44469 16.9837 7.34358 16.7771C7.24244 16.5705 7.09624 16.3892 6.91574 16.2466Z" fill="#757575"/>
<path id="Vector (Stroke)_3" fill-rule="evenodd" clip-rule="evenodd" d="M12.0195 5.19972C12.0887 4.79133 12.4759 4.51639 12.8843 4.58562C13.954 4.76696 14.9411 5.27588 15.7093 6.04212C16.4775 6.80837 16.989 7.79416 17.173 8.86346C17.2433 9.27167 16.9694 9.65955 16.5611 9.72982C16.1529 9.8001 15.7651 9.52614 15.6948 9.11793C15.5634 8.3547 15.1983 7.65106 14.65 7.10414C14.1017 6.55721 13.3971 6.19396 12.6336 6.06452C12.2252 5.99529 11.9502 5.60811 12.0195 5.19972Z" fill="#757575"/>
</g>
</svg>
