<svg width="24" height="24" viewBox="0 0 24 24" fill="none" xmlns="http://www.w3.org/2000/svg">
<g id="Phosphor Icons Regular / Link">
<path id="Vector (Stroke)" fill-rule="evenodd" clip-rule="evenodd" d="M13.8389 5.38066L11.9956 7.22402C11.7027 7.51691 11.2278 7.51691 10.9349 7.22402C10.642 6.93113 10.642 6.45625 10.9349 6.16336L12.7912 4.30711C12.7993 4.29893 12.8077 4.29093 12.8163 4.28314C13.7448 3.43687 14.9636 2.9809 16.2196 3.00998C17.4755 3.03905 18.672 3.55094 19.5603 4.43927C20.4486 5.3276 20.9605 6.52405 20.9896 7.77999C21.0187 9.03594 20.5627 10.2548 19.7164 11.1833C19.7083 11.1922 19.7 11.2009 19.6915 11.2093L17.0403 13.8512C17.04 13.8515 17.0397 13.8518 17.0393 13.8521C16.5875 14.3054 16.0506 14.6651 15.4596 14.9106C14.868 15.1562 14.2339 15.2827 13.5934 15.2827C12.9529 15.2827 12.3187 15.1562 11.7272 14.9106C11.1357 14.6649 10.5985 14.3049 10.1464 13.8512C9.85407 13.5577 9.85496 13.0828 10.1484 12.7905C10.4418 12.4982 10.9167 12.499 11.2091 12.7925C11.5217 13.1063 11.8933 13.3554 12.3025 13.5253C12.7116 13.6952 13.1503 13.7827 13.5934 13.7827C14.0364 13.7827 14.4751 13.6952 14.8842 13.5253C15.2934 13.3554 15.665 13.1063 15.9777 12.7925L15.9796 12.7905L18.6193 10.1602C19.1983 9.51842 19.51 8.67924 19.49 7.81471C19.4698 6.94447 19.1151 6.11545 18.4996 5.49993C17.8841 4.88441 17.0551 4.52972 16.1848 4.50958C15.3201 4.48956 14.4807 4.80139 13.8389 5.38066Z" fill="white"/>
<path id="Vector (Stroke)_2" fill-rule="evenodd" clip-rule="evenodd" d="M10.4063 10.2173C9.96327 10.2173 9.52459 10.3048 9.11544 10.4747C8.70628 10.6446 8.3347 10.8936 8.02201 11.2075L8.02008 11.2094L8.02008 11.2094L5.38036 13.8398C4.80136 14.4816 4.48968 15.3207 4.5097 16.1853C4.52984 17.0555 4.88453 17.8845 5.50005 18.5001C6.11557 19.1156 6.94459 19.4703 7.81483 19.4904C8.67958 19.5104 9.51895 19.1986 10.1607 18.6193L12.0041 16.776C12.297 16.4831 12.7719 16.4831 13.0648 16.776C13.3577 17.0689 13.3577 17.5437 13.0648 17.8366L11.2085 19.6929C11.2003 19.7011 11.192 19.7091 11.1834 19.7169C10.2549 20.5631 9.03607 21.0191 7.78012 20.99C6.52417 20.9609 5.32772 20.449 4.43939 19.5607C3.55106 18.6724 3.03918 17.4759 3.0101 16.22C2.98102 14.964 3.43699 13.7452 4.28326 12.8167C4.29135 12.8078 4.29966 12.7991 4.30817 12.7907L6.95937 10.1488C6.95971 10.1485 6.96004 10.1482 6.96038 10.1478C7.41222 9.69455 7.94905 9.33488 8.54012 9.0894C9.13163 8.84374 9.76582 8.71729 10.4063 8.71729C11.0468 8.71729 11.681 8.84374 12.2725 9.0894C12.864 9.33506 13.4012 9.69509 13.8533 10.1488C14.1456 10.4423 14.1447 10.9171 13.8513 11.2095C13.5578 11.5018 13.083 11.501 12.7906 11.2075C12.4779 10.8936 12.1063 10.6446 11.6972 10.4747C11.288 10.3048 10.8494 10.2173 10.4063 10.2173Z" fill="white"/>
</g>
</svg>
