<svg width="23" height="23" viewBox="0 0 23 23" fill="none" xmlns="http://www.w3.org/2000/svg">
<g id="mdi:star-outline">
<g id="Union">
<mask id="path-1-inside-1_813_4274" fill="white">
<path fill-rule="evenodd" clip-rule="evenodd" d="M14.3844 8.09063L21.125 8.6625L16.0063 13.0969L17.5438 19.6875L11.75 16.1906L5.95625 19.6875L7.48438 13.0969L2.375 8.6625L9.11562 8.09063L11.75 1.875L14.3844 8.09063Z"/>
</mask>
<path d="M21.125 8.6625L21.8616 9.5128L23.8769 7.76693L21.2201 7.54153L21.125 8.6625ZM14.3844 8.09063L13.3486 8.52963L13.6133 9.15425L14.2893 9.2116L14.3844 8.09063ZM16.0063 13.0969L15.2696 12.2466L14.7564 12.6912L14.9107 13.3525L16.0063 13.0969ZM17.5438 19.6875L16.9624 20.6507L19.245 22.0284L18.6393 19.4319L17.5438 19.6875ZM11.75 16.1906L12.3313 15.2275L11.75 14.8766L11.1687 15.2275L11.75 16.1906ZM5.95625 19.6875L4.86032 19.4334L4.25925 22.0258L6.53758 20.6507L5.95625 19.6875ZM7.48438 13.0969L8.5803 13.351L8.73328 12.6912L8.22177 12.2472L7.48438 13.0969ZM2.375 8.6625L2.2799 7.54153L-0.373576 7.76665L1.63761 9.51214L2.375 8.6625ZM9.11562 8.09063L9.21073 9.2116L9.8867 9.15425L10.1514 8.52963L9.11562 8.09063ZM11.75 1.875L12.7858 1.43599L11.75 -1.00792L10.7142 1.43599L11.75 1.875ZM21.2201 7.54153L14.4795 6.96965L14.2893 9.2116L21.0299 9.78347L21.2201 7.54153ZM16.7429 13.9472L21.8616 9.5128L20.3884 7.8122L15.2696 12.2466L16.7429 13.9472ZM18.6393 19.4319L17.1018 12.8413L14.9107 13.3525L16.4482 19.9431L18.6393 19.4319ZM11.1687 17.1538L16.9624 20.6507L18.1251 18.7243L12.3313 15.2275L11.1687 17.1538ZM6.53758 20.6507L12.3313 17.1538L11.1687 15.2275L5.37492 18.7243L6.53758 20.6507ZM6.38845 12.8428L4.86032 19.4334L7.05218 19.9416L8.5803 13.351L6.38845 12.8428ZM1.63761 9.51214L6.74698 13.9465L8.22177 12.2472L3.11239 7.81286L1.63761 9.51214ZM9.02052 6.96965L2.2799 7.54153L2.4701 9.78347L9.21073 9.2116L9.02052 6.96965ZM10.7142 1.43599L8.07982 7.65162L10.1514 8.52963L12.7858 2.31401L10.7142 1.43599ZM15.4202 7.65162L12.7858 1.43599L10.7142 2.31401L13.3486 8.52963L15.4202 7.65162Z" fill="black" mask="url(#path-1-inside-1_813_4274)"/>
</g>
</g>
</svg>
