<svg width="20" height="20" viewBox="0 0 20 20" fill="none" xmlns="http://www.w3.org/2000/svg">
<g id="grommet-icons:money" clip-path="url(#clip0_749_4138)">
<path id="Vector" d="M13.333 13.3334C13.333 12.4126 10.7213 11.6667 7.49967 11.6667M13.333 13.3334C13.333 14.2542 10.7213 15.0001 7.49967 15.0001C4.27801 15.0001 1.66634 14.2542 1.66634 13.3334M13.333 13.3334V17.4476C13.333 18.3967 10.7213 19.1667 7.49967 19.1667C4.27801 19.1667 1.66634 18.3976 1.66634 17.4476V13.3334M13.333 13.3334C16.5197 13.3334 19.1663 12.5109 19.1663 11.6667V3.33341M7.49967 11.6667C4.27801 11.6667 1.66634 12.4126 1.66634 13.3334M7.49967 11.6667C3.81801 11.6667 0.833008 10.8442 0.833008 10.0001V5.83341M7.49967 4.16675C3.81801 4.16675 0.833008 4.91258 0.833008 5.83341M0.833008 5.83341C0.833008 6.75425 3.81801 7.50008 7.49967 7.50008C7.49967 8.34425 10.2105 9.16675 13.3972 9.16675C16.5838 9.16675 19.1663 8.34425 19.1663 7.50008M19.1663 3.33341C19.1663 2.41258 16.583 1.66675 13.3972 1.66675C10.2113 1.66675 7.62801 2.41258 7.62801 3.33341M19.1663 3.33341C19.1663 4.25425 16.583 5.00008 13.3972 5.00008C10.2113 5.00008 7.62801 4.25425 7.62801 3.33341M7.62801 3.33341V11.8051" stroke="#757575" stroke-width="1.66667"/>
</g>
<defs>
<clipPath id="clip0_749_4138">
<rect width="20" height="20" fill="white"/>
</clipPath>
</defs>
</svg>
