<svg width="35" height="35" viewBox="0 0 35 35" fill="none" xmlns="http://www.w3.org/2000/svg">
<circle cx="17.5" cy="17.5" r="17" fill="#E4F0ED" stroke="#4D9E8A"/>
<path fill-rule="evenodd" clip-rule="evenodd" d="M13.3333 12.2917C13.3333 11.1866 13.7723 10.1268 14.5537 9.34539C15.3351 8.56399 16.3949 8.125 17.5 8.125C18.6051 8.125 19.6649 8.56399 20.4463 9.34539C21.2277 10.1268 21.6667 11.1866 21.6667 12.2917C21.6667 13.3967 21.2277 14.4565 20.4463 15.2379C19.6649 16.0193 18.6051 16.4583 17.5 16.4583C16.3949 16.4583 15.3351 16.0193 14.5537 15.2379C13.7723 14.4565 13.3333 13.3967 13.3333 12.2917ZM13.3333 18.5417C11.952 18.5417 10.6272 19.0904 9.65049 20.0672C8.67373 21.0439 8.125 22.3687 8.125 23.75C8.125 24.5788 8.45424 25.3737 9.04029 25.9597C9.62634 26.5458 10.4212 26.875 11.25 26.875H23.75C24.5788 26.875 25.3737 26.5458 25.9597 25.9597C26.5458 25.3737 26.875 24.5788 26.875 23.75C26.875 22.3687 26.3263 21.0439 25.3495 20.0672C24.3728 19.0904 23.048 18.5417 21.6667 18.5417H13.3333Z" fill="#4D9E8A"/>
</svg>
