<svg width="20" height="18" viewBox="0 0 20 18" fill="none" xmlns="http://www.w3.org/2000/svg">
<g id="Group 205">
<path id="Vector" d="M0.962542 17.5C0.783913 17.5 0.621524 17.4556 0.475373 17.3668C0.329223 17.278 0.21555 17.1604 0.134356 17.0139C0.0531608 16.8674 0.00866615 16.7093 0.000871457 16.5394C-0.00692324 16.3696 0.0375714 16.2037 0.134356 16.0417L9.14697 0.486111C9.2444 0.324074 9.37042 0.202546 9.52501 0.121528C9.67961 0.0405093 9.83778 0 9.99952 0C10.1613 0 10.3197 0.0405093 10.475 0.121528C10.6302 0.202546 10.7559 0.324074 10.8521 0.486111L19.8647 16.0417C19.9621 16.2037 20.0069 16.37 19.9991 16.5404C19.9913 16.7109 19.9465 16.8687 19.8647 17.0139C19.7828 17.1591 19.6692 17.2767 19.5237 17.3668C19.3782 17.4569 19.2158 17.5013 19.0365 17.5H0.962542ZM9.99952 14.5833C10.2756 14.5833 10.5071 14.49 10.6942 14.3033C10.8813 14.1167 10.9745 13.8859 10.9739 13.6111C10.9732 13.3363 10.8797 13.1056 10.6932 12.9189C10.5068 12.7322 10.2756 12.6389 9.99952 12.6389C9.72345 12.6389 9.49221 12.7322 9.30579 12.9189C9.11936 13.1056 9.02583 13.3363 9.02518 13.6111C9.02453 13.8859 9.11807 14.117 9.30579 14.3043C9.49351 14.4916 9.72475 14.5846 9.99952 14.5833ZM9.99952 11.6667C10.2756 11.6667 10.5071 11.5733 10.6942 11.3867C10.8813 11.2 10.9745 10.9693 10.9739 10.6944V7.77778C10.9739 7.50231 10.8803 7.27157 10.6932 7.08556C10.5062 6.89954 10.2749 6.8062 9.99952 6.80555C9.7241 6.80491 9.49286 6.89824 9.30579 7.08556C9.11872 7.27287 9.02518 7.50361 9.02518 7.77778V10.6944C9.02518 10.9699 9.11872 11.201 9.30579 11.3876C9.49286 11.5743 9.7241 11.6673 9.99952 11.6667Z" fill="#757575"/>
</g>
</svg>
