<svg width="20" height="20" viewBox="0 0 20 20" fill="none" xmlns="http://www.w3.org/2000/svg">
<g id="Phosphor Icons Fill / HouseSimple">
<path id="Vector" d="M17.0938 8.10116L10.8438 2.42148C10.6133 2.21066 10.3123 2.09375 10 2.09375C9.68768 2.09375 9.38668 2.21066 9.15625 2.42148L2.90625 8.10116C2.77828 8.21824 2.67608 8.36065 2.60614 8.51936C2.5362 8.67807 2.50006 8.8496 2.5 9.02304V16.2496C2.5 16.5811 2.6317 16.8991 2.86612 17.1335C3.10054 17.3679 3.41848 17.4996 3.75 17.4996H16.25C16.5815 17.4996 16.8995 17.3679 17.1339 17.1335C17.3683 16.8991 17.5 16.5811 17.5 16.2496V9.02304C17.4999 8.8496 17.4638 8.67807 17.3939 8.51936C17.3239 8.36065 17.2217 8.21824 17.0938 8.10116Z" fill="#4D9E8A"/>
</g>
</svg>
