<svg width="20" height="20" viewBox="0 0 20 20" fill="none" xmlns="http://www.w3.org/2000/svg">
<g id="Phosphor Icons Regular / HouseSimple">
<path id="Vector (Stroke)" d="M16.3859 8.13353L10.5075 2.79151L10.5063 2.79045L10.5062 2.79033L10.5057 2.78988C10.3675 2.66371 10.1871 2.59375 10 2.59375C9.81286 2.59375 9.63249 2.66371 9.49431 2.78988L16.3859 8.13353ZM16.3859 8.13353L16.3018 8.22603C16.2728 8.25797 16.2487 8.29265 16.2294 8.32914L10.3385 2.97575L10.3378 2.97512L10.337 2.97434C10.1461 2.80024 9.854 2.80022 9.6631 2.97429L9.66219 2.97512L9.66156 2.9757L3.41965 8.64803C3.4072 8.65935 3.39532 8.67129 3.38407 8.6838C3.34704 8.72501 3.31674 8.77186 3.29437 8.82264L3.29435 8.82266C3.27106 8.87553 3.25671 8.93181 3.25181 8.98923C3.2506 9.00336 3.25 9.01755 3.25 9.03174V16.2498C3.25 16.5259 3.47386 16.7498 3.75 16.7498H16.25C16.5261 16.7498 16.75 16.5259 16.75 16.2498V9.05618C16.8382 9.04229 16.9232 9.0048 16.9949 8.94403C16.9978 8.96901 16.9995 8.99416 17 9.01939L17 9.0253V16.2498C17 16.4487 16.921 16.6395 16.7803 16.7801C16.6397 16.9208 16.4489 16.9998 16.25 16.9998H3.75C3.55109 16.9998 3.36032 16.9208 3.21967 16.7801C3.07902 16.6395 3 16.4487 3 16.2498V9.02526L3.00005 9.01944C3.00194 8.91688 3.02422 8.81571 3.06559 8.72183C3.10692 8.62805 3.16646 8.54343 3.24077 8.47287L3.24585 8.46816L9.49252 2.79151L9.49389 2.79026L9.4943 2.78988L16.3859 8.13353ZM16.3782 8.967L16.7057 8.82276C16.7057 8.82269 16.7056 8.82263 16.7056 8.82256L16.3781 8.96696C16.3781 8.96697 16.3781 8.96698 16.3782 8.967ZM16.3782 8.967L16.2481 9.02428L16.3782 8.967Z" fill="#94C5B9" stroke="#94C5B9" stroke-linecap="round" stroke-linejoin="round"/>
</g>
</svg>
