<svg width="20" height="20" viewBox="0 0 20 20" fill="none" xmlns="http://www.w3.org/2000/svg">
<g id="Phosphor Icons Fill / MapTrifold">
<path id="Vector" d="M17.8828 3.88281C17.8088 3.8245 17.7226 3.78368 17.6306 3.76338C17.5386 3.74309 17.4432 3.74386 17.3516 3.76563L12.5703 4.96094L7.78125 2.5625H7.77343L7.71093 2.53906H7.69531L7.64062 2.52344H7.61718L7.5625 2.50781H7.35156L2.35156 3.75781C2.21393 3.79144 2.09181 3.87083 2.00523 3.98297C1.91864 4.09511 1.87272 4.23334 1.875 4.375V15.625C1.87408 15.7203 1.89552 15.8144 1.93758 15.8999C1.97964 15.9854 2.04115 16.0598 2.11718 16.1172C2.22621 16.2033 2.36108 16.2501 2.5 16.25L2.64843 16.2344L7.42968 15.0391L12.2187 17.4375H12.2266L12.2812 17.4609H12.2891L12.3516 17.4844H12.6484L17.6484 16.2344C17.7847 16.201 17.9059 16.1228 17.9923 16.0123C18.0788 15.9017 18.1255 15.7653 18.125 15.625V4.375C18.1259 4.27974 18.1045 4.18559 18.0624 4.10011C18.0204 4.01464 17.9588 3.94021 17.8828 3.88281ZM11.875 15.8672L8.125 13.9922V4.13281L11.875 6.00781V15.8672Z" fill="#4D9E8A"/>
</g>
</svg>
