<svg width="15" height="20" viewBox="0 0 15 20" fill="none" xmlns="http://www.w3.org/2000/svg">
<g id="Frame 110">
<g id="Group 272">
<g id="Group">
<path id="Vector" d="M10.2 8.20031C10.2 8.96414 9.91554 9.69668 9.40919 10.2368C8.90284 10.7769 8.21609 11.0803 7.5 11.0803C6.78392 11.0803 6.09716 10.7769 5.59081 10.2368C5.08447 9.69668 4.8 8.96414 4.8 8.20031C4.8 7.43649 5.08447 6.70395 5.59081 6.16384C6.09716 5.62374 6.78392 5.32031 7.5 5.32031C8.21609 5.32031 8.90284 5.62374 9.40919 6.16384C9.91554 6.70395 10.2 7.43649 10.2 8.20031Z" stroke="#94C5B9" stroke-width="1.35" stroke-linecap="round" stroke-linejoin="round"/>
<path id="Vector_2" d="M14.25 8.2C14.25 15.0563 7.5 19 7.5 19C7.5 19 0.75 15.0563 0.75 8.2C0.75 6.29044 1.46116 4.45909 2.72703 3.10883C3.9929 1.75857 5.70979 1 7.5 1C9.29021 1 11.0071 1.75857 12.273 3.10883C13.5388 4.45909 14.25 6.29044 14.25 8.2Z" stroke="#94C5B9" stroke-width="1.35" stroke-linecap="round" stroke-linejoin="round"/>
</g>
</g>
</g>
</svg>
