<svg width="14" height="18" viewBox="0 0 14 18" fill="none" xmlns="http://www.w3.org/2000/svg">
<g id="Frame 111">
<g id="Group 269">
<path id="Vector" fill-rule="evenodd" clip-rule="evenodd" d="M6.12765 17.7809L6.1317 17.785L6.1344 17.7878C6.31155 17.9255 6.52773 18 6.75 18C6.97227 18 7.18845 17.9255 7.3656 17.7878L7.3683 17.785L7.37235 17.7809L7.38855 17.7684C7.47544 17.6996 7.56096 17.6289 7.64505 17.5565C8.65158 16.6862 9.57632 15.721 10.4071 14.6736C11.8935 12.7876 13.5 10.046 13.5 6.92347C13.5 5.08725 12.7888 3.32624 11.523 2.02784C10.2571 0.729435 8.54021 0 6.75 0C4.95979 0 3.2429 0.729435 1.97703 2.02784C0.711159 3.32624 0 5.08725 0 6.92347C0 10.046 1.6065 12.7876 3.0942 14.6736C3.92503 15.721 4.84978 16.6862 5.8563 17.5565L6.11145 17.7684L6.12765 17.7809ZM6.75 9.00051C7.01593 9.00051 7.27925 8.94679 7.52493 8.84241C7.77062 8.73802 7.99385 8.58503 8.18189 8.39216C8.36993 8.19929 8.51909 7.97032 8.62086 7.71832C8.72262 7.46632 8.775 7.19623 8.775 6.92347C8.775 6.65071 8.72262 6.38062 8.62086 6.12862C8.51909 5.87662 8.36993 5.64765 8.18189 5.45478C7.99385 5.26191 7.77062 5.10892 7.52493 5.00453C7.27925 4.90015 7.01593 4.84643 6.75 4.84643C6.21294 4.84643 5.69787 5.06526 5.31811 5.45478C4.93835 5.8443 4.725 6.3726 4.725 6.92347C4.725 7.47434 4.93835 8.00264 5.31811 8.39216C5.69787 8.78168 6.21294 9.00051 6.75 9.00051Z" fill="#4D9E8A"/>
</g>
</g>
</svg>
