<svg width="18" height="18" viewBox="0 0 18 18" fill="none" xmlns="http://www.w3.org/2000/svg">
<g id="Frame 201">
<g id="Group 154">
<g id="Group">
<path id="Vector" d="M15.2218 6.47378V5.38578C15.2218 4.92049 15.035 4.47421 14.7012 4.14557C14.366 3.81598 13.9146 3.63145 13.4445 3.63184H4.55458C4.0845 3.63145 3.63312 3.81598 3.29793 4.14557C2.96409 4.47421 2.77728 4.92049 2.77728 5.38578V6.47465" stroke="#94C5B9" stroke-width="1.2973" stroke-linecap="round" stroke-linejoin="round"/>
<path id="Vector_2" d="M4.55546 3.63179V2.75481C4.55546 2.28951 4.74314 1.84324 5.07611 1.51373C5.41151 1.18394 5.86324 0.999392 6.33362 1H11.6664C12.1368 0.999392 12.5885 1.18394 12.9239 1.51373C13.2569 1.84238 13.4445 2.28951 13.4445 2.75481V3.63179M14.12 6.26357H3.88C2.28865 6.26357 1 7.53492 1 9.10552V14.1581C1 15.7278 2.28865 17 3.88 17H14.12C15.7114 17 17 15.7278 17 14.1581V9.10552C17 7.53579 15.7114 6.26357 14.12 6.26357Z" stroke="#94C5B9" stroke-width="1.2973" stroke-linecap="round" stroke-linejoin="round"/>
<path id="Vector_3" d="M5.44455 9.77246V10.6494C5.44455 11.1147 5.63136 11.561 5.9652 11.8896C6.29817 12.2183 6.7505 12.4034 7.22185 12.4034H10.7782C11.2483 12.4038 11.6996 12.2192 12.0348 11.8896C12.3687 11.561 12.5555 11.1147 12.5555 10.6494V9.77246" stroke="#94C5B9" stroke-width="1.2973" stroke-linecap="round" stroke-linejoin="round"/>
</g>
</g>
</g>
</svg>
