<svg width="18" height="18" viewBox="0 0 18 18" fill="none" xmlns="http://www.w3.org/2000/svg">
<g id="Frame 72">
<g id="Group 158">
<path id="Vector" d="M15.544 5.78119V5.08885C15.5482 4.76668 15.4867 4.44705 15.3632 4.14946C15.2398 3.85187 15.057 3.58257 14.8261 3.358C14.5278 3.06813 14.1622 2.85698 13.7621 2.74355V2.42335C13.7659 2.102 13.7051 1.78319 13.5832 1.48584C13.4614 1.1885 13.281 0.918706 13.0528 0.692497C12.5905 0.241776 11.9684 -0.00718773 11.3228 0.000158057H5.9858C5.34642 -0.00216325 4.73206 0.248558 4.27672 0.697639C3.82138 1.14672 3.562 1.75772 3.55515 2.39738V2.71759C3.15508 2.83101 2.78947 3.04216 2.4912 3.33204C2.26184 3.55735 2.08068 3.82697 1.95874 4.12453C1.83681 4.42208 1.77664 4.74134 1.7819 5.06289V5.75523C1.24166 6.05499 0.791494 6.49399 0.478146 7.02664C0.164798 7.55929 -0.000299688 8.16615 4.08382e-07 8.78421V13.8383C0.0159031 14.7634 0.395011 15.6451 1.05539 16.2929C1.71578 16.9406 2.60439 17.3024 3.5292 17.3H13.7708C14.6956 17.3024 15.5842 16.9406 16.2446 16.2929C16.905 15.6451 17.2841 14.7634 17.3 13.8383V8.78421C17.2983 8.17314 17.1349 7.57341 16.8265 7.04596C16.5181 6.51851 16.0756 6.08214 15.544 5.78119ZM12.8712 10.3506C12.8712 10.668 12.8084 10.9823 12.6865 11.2753C12.5646 11.5684 12.3859 11.8344 12.1608 12.058C11.9356 12.2816 11.6685 12.4585 11.3748 12.5784C11.081 12.6982 10.7664 12.7588 10.4492 12.7565H6.89405C6.41075 12.7613 5.937 12.6218 5.53331 12.3559C5.12963 12.09 4.81435 11.7097 4.62775 11.2637C4.50545 10.9658 4.4437 10.6466 4.4461 10.3247V9.45924C4.4461 9.2871 4.51445 9.12201 4.63611 9.00028C4.75778 8.87856 4.92279 8.81018 5.09485 8.81018C5.26691 8.81018 5.43192 8.87856 5.55359 9.00028C5.67525 9.12201 5.7436 9.2871 5.7436 9.45924V10.3247C5.74429 10.4698 5.77368 10.6133 5.8301 10.747C5.88652 10.8807 5.96883 11.0019 6.0723 11.1035C6.28682 11.3147 6.57573 11.4333 6.87675 11.4324H10.4319C10.7299 11.4309 11.0155 11.3129 11.2277 11.1035C11.3332 11.0034 11.4168 10.8825 11.4734 10.7485C11.5299 10.6144 11.5582 10.4701 11.5564 10.3247V9.45924C11.5564 9.2871 11.6247 9.12201 11.7464 9.00028C11.8681 8.87856 12.0331 8.81018 12.2051 8.81018C12.3772 8.81018 12.5422 8.87856 12.6639 9.00028C12.7855 9.12201 12.8539 9.2871 12.8539 9.45924L12.8712 10.3506ZM14.2465 5.34848C14.094 5.33495 13.9406 5.33495 13.7881 5.34848H3.5465C3.39685 5.33545 3.24635 5.33545 3.0967 5.34848V5.08885C3.09541 4.94345 3.12391 4.79932 3.18044 4.66536C3.23698 4.5314 3.32034 4.41045 3.4254 4.30997C3.63761 4.10065 3.9232 3.98263 4.2212 3.98111H13.1134C13.4144 3.98111 13.7033 4.09881 13.9178 4.30997C14.0213 4.41166 14.1036 4.53284 14.16 4.66652C14.2165 4.80021 14.2459 4.94374 14.2465 5.08885V5.34848Z" fill="#4D9E8A"/>
</g>
</g>
</svg>
