<svg width="24" height="24" viewBox="0 0 24 24" fill="none" xmlns="http://www.w3.org/2000/svg">
<g id="Phosphor Icons Regular / PhoneCall">
<path id="Vector (Stroke)" fill-rule="evenodd" clip-rule="evenodd" d="M14.2194 3.5556C14.3268 3.15554 14.7381 2.91827 15.1382 3.02564C16.5374 3.40115 17.8132 4.13808 18.8376 5.16246C19.862 6.18685 20.5989 7.46266 20.9744 8.86185C21.0818 9.26191 20.8445 9.67325 20.4444 9.78062C20.0444 9.88799 19.633 9.65071 19.5257 9.25066C19.2184 8.10558 18.6153 7.06147 17.7769 6.22312C16.9386 5.38478 15.8945 4.78168 14.7494 4.47437C14.3493 4.367 14.1121 3.95566 14.2194 3.5556Z" fill="white"/>
<path id="Vector (Stroke)_2" fill-rule="evenodd" clip-rule="evenodd" d="M13.4408 6.45434C13.5472 6.054 13.9579 5.81566 14.3582 5.92198C15.2511 6.15912 16.0655 6.62808 16.7187 7.28134C17.372 7.9346 17.8409 8.74894 18.0781 9.64184C18.1844 10.0422 17.9461 10.4529 17.5457 10.5592C17.1454 10.6655 16.7347 10.4272 16.6283 10.0269C16.4591 9.38954 16.1243 8.80828 15.6581 8.342C15.1918 7.87572 14.6105 7.54099 13.9732 7.37172C13.5729 7.2654 13.3345 6.85468 13.4408 6.45434Z" fill="white"/>
<path id="Vector (Stroke)_3" fill-rule="evenodd" clip-rule="evenodd" d="M7.58281 2.29355C7.90697 2.25197 8.23581 2.31807 8.51873 2.48168C8.80038 2.64456 9.02097 2.89511 9.14689 3.19502L11.0285 7.58557C11.0288 7.58619 11.0291 7.58682 11.0294 7.58745C11.1268 7.81259 11.1675 8.0582 11.1479 8.30274C11.1283 8.54798 11.0487 8.78462 10.916 8.99182L10.9111 8.99953L9.34841 11.3762C10.0458 12.8146 11.209 13.975 12.6491 14.669L12.6521 14.6669L14.9941 13.1025C15.2019 12.9622 15.4418 12.8766 15.6915 12.8536C15.9413 12.8306 16.1927 12.871 16.4227 12.971C16.4237 12.9714 16.4246 12.9718 16.4255 12.9722L20.8053 14.8532C21.1051 14.9792 21.3555 15.1997 21.5183 15.4812C21.6819 15.7642 21.748 16.093 21.7064 16.4172C21.5442 17.6834 20.9261 18.8472 19.9678 19.6907C19.0096 20.5342 17.7768 20.9997 16.5002 21C12.9197 21 9.4858 19.5777 6.95406 17.0459C4.42232 14.5142 3 11.0804 3 7.49997C3.00029 6.22334 3.46573 4.99039 4.30925 4.03213C5.15271 3.07393 6.31663 2.45584 7.58281 2.29355ZM8.67187 11.7L7.99536 12.0237C7.88459 11.7923 7.83505 11.5363 7.85147 11.2803C7.86788 11.0242 7.9497 10.7766 8.08911 10.5612L8.09205 10.5567L9.65268 8.18306L9.65126 8.17979L7.76689 3.78291C6.86505 3.90014 6.03617 4.34048 5.43518 5.02323C4.8327 5.70766 4.50025 6.58815 4.5 7.49997M8.67187 11.7L7.99685 12.0268C8.84248 13.7731 10.2545 15.1816 12.003 16.0227L12.0072 16.0247C12.2426 16.1362 12.503 16.1844 12.7627 16.1647C13.0217 16.145 13.2712 16.0584 13.4867 15.9133C13.4873 15.9129 13.4879 15.9126 13.4884 15.9122L15.8291 14.3486L20.2165 16.2329L20.2177 16.2334C20.1005 17.1352 19.6595 17.9638 18.9767 18.5648C18.2923 19.1673 17.4118 19.4997 16.5 19.5M4.5 7.49997C4.50004 10.6825 5.76432 13.7349 8.01472 15.9853C10.2651 18.2357 13.3175 19.4999 16.5 19.5" fill="white"/>
</g>
</svg>
