<svg width="23" height="23" viewBox="0 0 23 23" fill="none" xmlns="http://www.w3.org/2000/svg">
<mask id="mask0_996_4467" style="mask-type:luminance" maskUnits="userSpaceOnUse" x="2" y="1" width="20" height="19">
<path fill-rule="evenodd" clip-rule="evenodd" d="M14.3844 8.09063L21.125 8.6625L16.0063 13.0969L17.5438 19.6875L11.75 16.1906L5.95625 19.6875L7.48438 13.0969L2.375 8.6625L9.11562 8.09063L11.75 1.875L14.3844 8.09063Z" fill="white"/>
</mask>
<g mask="url(#mask0_996_4467)">
<path d="M21.1246 8.66261L21.8612 9.51291L23.8765 7.76704L21.2197 7.54164L21.1246 8.66261ZM14.384 8.09074L13.3482 8.52974L13.6129 9.15436L14.2889 9.21171L14.384 8.09074ZM16.0059 13.097L15.2692 12.2467L14.756 12.6913L14.9103 13.3526L16.0059 13.097ZM17.5434 19.6876L16.962 20.6508L19.2446 22.0285L18.6389 19.432L17.5434 19.6876ZM11.7496 16.1907L12.3309 15.2276L11.7496 14.8767L11.1683 15.2276L11.7496 16.1907ZM5.9558 19.6876L4.85987 19.4335L4.2588 22.0259L6.53713 20.6508L5.9558 19.6876ZM7.48393 13.097L8.57985 13.3511L8.73283 12.6913L8.22132 12.2473L7.48393 13.097ZM2.37455 8.66261L2.27945 7.54164L-0.374023 7.76676L1.63716 9.51225L2.37455 8.66261ZM9.11517 8.09074L9.21028 9.21171L9.88625 9.15436L10.151 8.52974L9.11517 8.09074ZM11.7496 1.87511L12.7854 1.4361L11.7496 -1.00781L10.7138 1.4361L11.7496 1.87511ZM21.2197 7.54164L14.4791 6.96976L14.2889 9.21171L21.0295 9.78358L21.2197 7.54164ZM16.7425 13.9473L21.8612 9.51291L20.388 7.81231L15.2692 12.2467L16.7425 13.9473ZM18.6389 19.432L17.1014 12.8414L14.9103 13.3526L16.4478 19.9432L18.6389 19.432ZM11.1683 17.1539L16.962 20.6508L18.1247 18.7244L12.3309 15.2276L11.1683 17.1539ZM6.53713 20.6508L12.3309 17.1539L11.1683 15.2276L5.37447 18.7244L6.53713 20.6508ZM6.388 12.8429L4.85987 19.4335L7.05173 19.9417L8.57985 13.3511L6.388 12.8429ZM1.63716 9.51225L6.74653 13.9466L8.22132 12.2473L3.11194 7.81297L1.63716 9.51225ZM9.02007 6.96976L2.27945 7.54164L2.46965 9.78358L9.21028 9.21171L9.02007 6.96976ZM10.7138 1.4361L8.07937 7.65173L10.151 8.52974L12.7854 2.31412L10.7138 1.4361ZM15.4198 7.65173L12.7854 1.4361L10.7138 2.31412L13.3482 8.52974L15.4198 7.65173Z" fill="black"/>
</g>
</svg>
