<svg width="20" height="19" viewBox="0 0 20 19" fill="none" xmlns="http://www.w3.org/2000/svg">
<mask id="path-1-inside-1_396_3959" fill="white">
<path fill-rule="evenodd" clip-rule="evenodd" d="M12.3415 6.7723L18.3332 7.2298L13.7832 10.7773L15.1498 16.0498L9.99984 13.2523L4.84984 16.0498L6.20817 10.7773L1.6665 7.2298L7.65817 6.7723L9.99984 1.7998L12.3415 6.7723Z"/>
</mask>
<path fill-rule="evenodd" clip-rule="evenodd" d="M12.3415 6.7723L18.3332 7.2298L13.7832 10.7773L15.1498 16.0498L9.99984 13.2523L4.84984 16.0498L6.20817 10.7773L1.6665 7.2298L7.65817 6.7723L9.99984 1.7998L12.3415 6.7723Z" fill="#FFED61"/>
<path d="M18.3332 7.2298L18.948 8.01843L20.986 6.42946L18.4093 6.23271L18.3332 7.2298ZM12.3415 6.7723L11.4368 7.19835L11.6848 7.72508L12.2654 7.7694L12.3415 6.7723ZM13.7832 10.7773L13.1683 9.98868L12.6504 10.3925L12.8152 11.0282L13.7832 10.7773ZM15.1498 16.0498L14.6725 16.9285L16.6955 18.0274L16.1178 15.7989L15.1498 16.0498ZM9.99984 13.2523L10.4772 12.3736L9.99984 12.1143L9.52251 12.3736L9.99984 13.2523ZM4.84984 16.0498L3.88146 15.8003L3.30827 18.0252L5.32716 16.9285L4.84984 16.0498ZM6.20817 10.7773L7.17655 11.0268L7.33997 10.3925L6.82374 9.98922L6.20817 10.7773ZM1.6665 7.2298L1.59037 6.23271L-0.982976 6.4292L1.05093 8.01789L1.6665 7.2298ZM7.65817 6.7723L7.7343 7.7694L8.31482 7.72508L8.56287 7.19835L7.65817 6.7723ZM9.99984 1.7998L10.9045 1.37376L9.99984 -0.547364L9.09514 1.37376L9.99984 1.7998ZM18.4093 6.23271L12.4176 5.77521L12.2654 7.7694L18.257 8.2269L18.4093 6.23271ZM14.398 11.5659L18.948 8.01843L17.7183 6.44118L13.1683 9.98868L14.398 11.5659ZM16.1178 15.7989L14.7512 10.5264L12.8152 11.0282L14.1818 16.3007L16.1178 15.7989ZM9.52251 14.131L14.6725 16.9285L15.6272 15.1711L10.4772 12.3736L9.52251 14.131ZM5.32716 16.9285L10.4772 14.131L9.52251 12.3736L4.37251 15.1711L5.32716 16.9285ZM5.23979 10.5278L3.88146 15.8003L5.81822 16.2993L7.17655 11.0268L5.23979 10.5278ZM1.05093 8.01789L5.5926 11.5654L6.82374 9.98922L2.28207 6.44172L1.05093 8.01789ZM7.58204 5.77521L1.59037 6.23271L1.74264 8.2269L7.7343 7.7694L7.58204 5.77521ZM9.09514 1.37376L6.75347 6.34626L8.56287 7.19835L10.9045 2.22585L9.09514 1.37376ZM13.2462 6.34626L10.9045 1.37376L9.09514 2.22585L11.4368 7.19835L13.2462 6.34626Z" fill="black" mask="url(#path-1-inside-1_396_3959)"/>
</svg>
