<svg width="20" height="18" viewBox="0 0 20 18" fill="none" xmlns="http://www.w3.org/2000/svg">
<path fill-rule="evenodd" clip-rule="evenodd" d="M12.0581 1.85225C12.3021 1.63258 12.6979 1.63258 12.9419 1.85225L16.6919 5.22725C16.936 5.44692 16.936 5.80308 16.6919 6.02275L12.9419 9.39775C12.6979 9.61742 12.3021 9.61742 12.0581 9.39775C11.814 9.17808 11.814 8.82192 12.0581 8.60225L15.3661 5.625L12.0581 2.64775C11.814 2.42808 11.814 2.07192 12.0581 1.85225Z" fill="white"/>
<path fill-rule="evenodd" clip-rule="evenodd" d="M4.375 5.625C4.375 5.31434 4.65482 5.0625 5 5.0625H16.25C16.5952 5.0625 16.875 5.31434 16.875 5.625C16.875 5.93566 16.5952 6.1875 16.25 6.1875H5.625V15.75C5.625 16.0607 5.34518 16.3125 5 16.3125C4.65482 16.3125 4.375 16.0607 4.375 15.75V5.625Z" fill="white"/>
</svg>
