<svg width="20" height="20" viewBox="0 0 20 20" fill="none" xmlns="http://www.w3.org/2000/svg">
<path fill-rule="evenodd" clip-rule="evenodd" d="M13.3081 10.8081C13.5521 10.564 13.9479 10.564 14.1919 10.8081L16.6919 13.3081C16.936 13.5521 16.936 13.9479 16.6919 14.1919L14.1919 16.6919C13.9479 16.936 13.5521 16.936 13.3081 16.6919C13.064 16.4479 13.064 16.0521 13.3081 15.8081L15.3661 13.75L13.3081 11.6919C13.064 11.4479 13.064 11.0521 13.3081 10.8081Z" fill="black"/>
<path fill-rule="evenodd" clip-rule="evenodd" d="M3.125 13.75C3.125 13.4048 3.40482 13.125 3.75 13.125H16.25C16.5952 13.125 16.875 13.4048 16.875 13.75C16.875 14.0952 16.5952 14.375 16.25 14.375H3.75C3.40482 14.375 3.125 14.0952 3.125 13.75Z" fill="black"/>
<path fill-rule="evenodd" clip-rule="evenodd" d="M6.69194 3.30806C6.93602 3.55214 6.93602 3.94786 6.69194 4.19194L4.63388 6.25L6.69194 8.30806C6.93602 8.55214 6.93602 8.94786 6.69194 9.19194C6.44786 9.43602 6.05214 9.43602 5.80806 9.19194L3.30806 6.69194C3.06398 6.44786 3.06398 6.05214 3.30806 5.80806L5.80806 3.30806C6.05214 3.06398 6.44786 3.06398 6.69194 3.30806Z" fill="black"/>
<path fill-rule="evenodd" clip-rule="evenodd" d="M3.125 6.25C3.125 5.90482 3.40482 5.625 3.75 5.625H16.25C16.5952 5.625 16.875 5.90482 16.875 6.25C16.875 6.59518 16.5952 6.875 16.25 6.875H3.75C3.40482 6.875 3.125 6.59518 3.125 6.25Z" fill="black"/>
</svg>
