<svg width="36" height="36" viewBox="0 0 56 56" fill="none" xmlns="http://www.w3.org/2000/svg">
<path d="M39.9983 28.5C40.3962 28.5 40.7777 28.658 41.059 28.9393C41.3403 29.2206 41.4983 29.6022 41.4983 30V31.5C41.4983 31.8978 41.3403 32.2794 41.059 32.5607C40.7777 32.842 40.3962 33 39.9983 33C39.6005 33 39.219 32.842 38.9377 32.5607C38.6564 32.2794 38.4983 31.8978 38.4983 31.5V30C38.4983 29.6022 38.6564 29.2206 38.9377 28.9393C39.219 28.658 39.6005 28.5 39.9983 28.5ZM49.5443 25.425L50.6048 26.4855C50.8781 26.7684 51.0293 27.1473 51.0258 27.5406C51.0224 27.9339 50.8647 28.3101 50.5866 28.5882C50.3085 28.8663 49.9322 29.0241 49.5389 29.0275C49.1456 29.0309 48.7667 28.8797 48.4838 28.6065L47.4233 27.546C47.1501 27.2631 46.9989 26.8842 47.0023 26.4909C47.0057 26.0976 47.1635 25.7214 47.4416 25.4433C47.7197 25.1652 48.0959 25.0074 48.4892 25.004C48.8825 25.0006 49.2614 25.1518 49.5443 25.425ZM30.4523 25.425C30.7223 25.156 31.0845 24.9998 31.4654 24.9882C31.8463 24.9765 32.2174 25.1103 32.5033 25.3624C32.7891 25.6144 32.9683 25.9658 33.0044 26.3452C33.0406 26.7246 32.931 27.1035 32.6978 27.405L32.5733 27.546L31.5128 28.6065C31.2429 28.8755 30.8807 29.0317 30.4998 29.0433C30.1188 29.055 29.7478 28.9212 29.4619 28.6691C29.1761 28.4171 28.9969 28.0657 28.9607 27.6863C28.9246 27.3069 29.0342 26.928 29.2673 26.6265L29.3918 26.4855L30.4523 25.425ZM39.9983 9C42.3853 9 44.6745 9.94821 46.3623 11.636C48.0501 13.3239 48.9983 15.6131 48.9983 18C48.9983 20.3869 48.0501 22.6761 46.3623 24.364C44.6745 26.0518 42.3853 27 39.9983 27C37.6114 27 35.3222 26.0518 33.6344 24.364C31.9466 22.6761 30.9983 20.3869 30.9983 18C30.9983 15.6131 31.9466 13.3239 33.6344 11.636C35.3222 9.94821 37.6114 9 39.9983 9ZM27.9983 16.5C28.3807 16.5004 28.7484 16.6468 29.0264 16.9093C29.3044 17.1717 29.4717 17.5304 29.4941 17.9121C29.5165 18.2938 29.3923 18.6696 29.1469 18.9627C28.9016 19.2559 28.5535 19.4443 28.1738 19.4895L27.9983 19.5H26.4983C26.116 19.4996 25.7483 19.3532 25.4703 19.0907C25.1923 18.8283 25.025 18.4696 25.0026 18.0879C24.9802 17.7062 25.1044 17.3304 25.3497 17.0373C25.5951 16.7441 25.9432 16.5557 26.3228 16.5105L26.4983 16.5H27.9983ZM53.4983 16.5C53.8962 16.5 54.2777 16.658 54.559 16.9393C54.8403 17.2206 54.9983 17.6022 54.9983 18C54.9983 18.3978 54.8403 18.7794 54.559 19.0607C54.2777 19.342 53.8962 19.5 53.4983 19.5H51.9983C51.6005 19.5 51.219 19.342 50.9377 19.0607C50.6564 18.7794 50.4983 18.3978 50.4983 18C50.4983 17.6022 50.6564 17.2206 50.9377 16.9393C51.219 16.658 51.6005 16.5 51.9983 16.5H53.4983ZM29.3918 7.3935C29.6501 7.13523 29.9938 6.98009 30.3583 6.95717C30.7229 6.93424 31.0832 7.04512 31.3718 7.269L31.5128 7.3935L32.5733 8.454C32.8424 8.72394 32.9985 9.08615 33.0102 9.46708C33.0218 9.848 32.888 10.2191 32.636 10.5049C32.3839 10.7908 32.0325 10.97 31.6531 11.0061C31.2737 11.0422 30.8948 10.9326 30.5933 10.6995L30.4523 10.575L29.3918 9.5145C29.1106 9.23321 28.9527 8.85175 28.9527 8.454C28.9527 8.05625 29.1106 7.67479 29.3918 7.3935ZM50.6048 7.3935C50.886 7.67479 51.044 8.05625 51.044 8.454C51.044 8.85175 50.886 9.23321 50.6048 9.5145L49.5443 10.575C49.406 10.7183 49.2404 10.8325 49.0574 10.9112C48.8744 10.9898 48.6776 11.0311 48.4784 11.0329C48.2793 11.0346 48.0818 10.9967 47.8974 10.9212C47.7131 10.8458 47.5456 10.7344 47.4047 10.5936C47.2639 10.4528 47.1525 10.2853 47.0771 10.1009C47.0017 9.91659 46.9637 9.71907 46.9655 9.5199C46.9672 9.32073 47.0086 9.1239 47.0872 8.94089C47.1658 8.75789 47.2801 8.59237 47.4233 8.454L48.4838 7.3935C48.7651 7.11229 49.1466 6.95432 49.5443 6.95432C49.9421 6.95432 50.3235 7.11229 50.6048 7.3935ZM39.9983 3C40.3962 3 40.7777 3.15804 41.059 3.43934C41.3403 3.72064 41.4983 4.10218 41.4983 4.5V6C41.4983 6.39782 41.3403 6.77936 41.059 7.06066C40.7777 7.34196 40.3962 7.5 39.9983 7.5C39.6005 7.5 39.219 7.34196 38.9377 7.06066C38.6564 6.77936 38.4983 6.39782 38.4983 6V4.5C38.4983 4.10218 38.6564 3.72064 38.9377 3.43934C39.219 3.15804 39.6005 3 39.9983 3Z" fill="#FF8F3F"/>
<path d="M10.782 49.04H39.868C47.298 49.04 53.04 43.414 53.04 36.22C53.04 28.93 47.04 23.47 39.094 23.54C36.094 17.493 30.587 14 24.094 14C15.446 14 8.157 20.82 7.477 29.563C2.93 30.805 0 34.626 0 39.243C0 45.055 4.36 49.04 10.782 49.04Z" fill="#C3E5FF"/>
</svg>
