<svg width="24" height="24" viewBox="0 0 24 24" fill="none" xmlns="http://www.w3.org/2000/svg">
<g id="Group">
<path id="Vector" d="M2 14C1.46957 14 0.96086 13.7893 0.585787 13.4142C0.210714 13.0391 0 12.5304 0 12C0 11.4696 0.210714 10.9609 0.585787 10.5858C0.96086 10.2107 1.46957 10 2 10H22C22.5304 10 23.0391 10.2107 23.4142 10.5858C23.7893 10.9609 24 11.4696 24 12C24 12.5304 23.7893 13.0391 23.4142 13.4142C23.0391 13.7893 22.5304 14 22 14H2Z" fill="white"/>
<path id="Vector_2" d="M12 6C13.6569 6 15 4.65685 15 3C15 1.34315 13.6569 0 12 0C10.3431 0 9 1.34315 9 3C9 4.65685 10.3431 6 12 6Z" fill="white"/>
<path id="Vector_3" d="M12 24C13.6569 24 15 22.6569 15 21C15 19.3431 13.6569 18 12 18C10.3431 18 9 19.3431 9 21C9 22.6569 10.3431 24 12 24Z" fill="white"/>
</g>
</svg>
