<svg width="24" height="14" viewBox="0 0 24 14" fill="none" xmlns="http://www.w3.org/2000/svg">
<g id="Group 364">
<path id="Vector" d="M22.2857 13.9999H1.71429C1.25963 13.9999 0.823594 13.8175 0.502103 13.4927C0.180612 13.1679 0 12.7274 0 12.268C0 11.8087 0.180612 11.3682 0.502103 11.0434C0.823594 10.7186 1.25963 10.5361 1.71429 10.5361H22.2857C22.7404 10.5361 23.1764 10.7186 23.4979 11.0434C23.8194 11.3682 24 11.8087 24 12.268C24 12.7274 23.8194 13.1679 23.4979 13.4927C23.1764 13.8175 22.7404 13.9999 22.2857 13.9999Z" fill="white"/>
<path id="Vector_2" d="M22.2857 3.46381H1.71429C1.25963 3.46381 0.823594 3.28134 0.502103 2.95654C0.180612 2.63175 0 2.19123 0 1.7319C0 1.27257 0.180612 0.832058 0.502103 0.507263C0.823594 0.182468 1.25963 0 1.71429 0H22.2857C22.7404 0 23.1764 0.182468 23.4979 0.507263C23.8194 0.832058 24 1.27257 24 1.7319C24 2.19123 23.8194 2.63175 23.4979 2.95654C23.1764 3.28134 22.7404 3.46381 22.2857 3.46381Z" fill="white"/>
</g>
</svg>
