<svg width="18" height="19" viewBox="0 0 18 19" fill="none" xmlns="http://www.w3.org/2000/svg">
<path id="Vector" d="M17.5027 3.88972L11.4307 9.93945L17.5027 15.9892C17.8248 16.3101 18.0058 16.7453 18.0058 17.1991C18.0058 17.6529 17.8248 18.0882 17.5027 18.4091C17.1807 18.73 16.7438 18.9103 16.2883 18.9103C15.8328 18.9103 15.396 18.73 15.0739 18.4091L9.00183 12.3593L2.92975 18.4091C2.60766 18.73 2.17082 18.9103 1.71533 18.9103C1.25984 18.9103 0.822997 18.73 0.500913 18.4091C0.17883 18.0882 -0.00211401 17.6529 -0.0021142 17.1991C-0.00211437 16.7453 0.178831 16.3101 0.500914 15.9892L6.573 9.93945L0.500914 3.88972C0.178831 3.56883 -0.00211492 3.1336 -0.00211475 2.67978C-0.00211456 2.22596 0.17883 1.79073 0.500913 1.46983C0.822997 1.14893 1.25983 0.968655 1.71533 0.968655C2.17082 0.968655 2.60766 1.14893 2.92975 1.46983L9.00183 7.51956L15.0739 1.46983C15.396 1.14893 15.8328 0.968655 16.2883 0.968655C16.7438 0.968655 17.1807 1.14893 17.5027 1.46983C17.8248 1.79073 18.0058 2.22596 18.0058 2.67978C18.0058 3.1336 17.8248 3.56882 17.5027 3.88972Z" fill="white"/>
</svg>
