<svg width="36" height="36" viewBox="0 0 36 36" fill="none" xmlns="http://www.w3.org/2000/svg">
<path d="M25.5938 23.625H9.14062C7.06641 23.625 5.27906 23.0744 3.97055 22.0331C2.47711 20.8434 1.6875 19.0793 1.6875 16.9312C1.6875 15.0567 2.39625 13.4297 3.73641 12.2266C4.80797 11.2647 6.27961 10.5947 7.88484 10.3394C7.88906 10.3394 7.89047 10.3394 7.89117 10.3359C8.34398 7.59373 9.56672 5.26709 11.4286 3.60842C13.2399 2.00194 15.5789 1.11798 18 1.12498C20.1255 1.12498 22.1119 1.78521 23.7452 3.03537C25.1732 4.14383 26.2751 5.61746 26.9346 7.30053C29.0025 7.63943 30.7821 8.50357 32.0808 9.79943C33.5391 11.2577 34.3125 13.1983 34.3125 15.4125C34.3125 17.7222 33.3893 19.833 31.7109 21.3553C30.1015 22.8192 27.9281 23.625 25.5938 23.625ZM6.59672 30.2641L10.0948 25.0169L11.9669 26.2649L8.46879 31.5121L6.59672 30.2641ZM9.97151 33.6394L15.7196 25.0172L17.5918 26.2653L11.8436 34.8876L9.97151 33.6394ZM17.8462 30.2642L21.3442 25.017L23.2163 26.2651L19.7183 31.5123L17.8462 30.2642ZM21.2209 33.6396L26.969 25.0173L28.8411 26.2654L23.0929 34.8876L21.2209 33.6396Z" fill="#C3E5FF"/>
</svg>
