<svg width="20" height="21" viewBox="0 0 20 21" fill="none" xmlns="http://www.w3.org/2000/svg">
<path d="M17.7778 0.274849H2.22222C1.63285 0.274849 1.06762 0.508113 0.650874 0.923327C0.234126 1.33854 0 1.90169 0 2.48889V17.9872C0 18.5744 0.234126 19.1375 0.650874 19.5527C1.06762 19.968 1.63285 20.2012 2.22222 20.2012H17.7778C18.3671 20.2012 18.9324 19.968 19.3491 19.5527C19.7659 19.1375 20 18.5744 20 17.9872V2.48889C20 1.90169 19.7659 1.33854 19.3491 0.923327C18.9324 0.508113 18.3671 0.274849 17.7778 0.274849ZM7.77778 15.7731L2.22222 10.238L3.78889 8.67714L7.77778 12.6403L16.2111 4.23798L17.7778 5.80995L7.77778 15.7731Z" fill="#23FFC9"/>
</svg>
