<svg width="18" height="22" viewBox="0 0 18 22" fill="none" xmlns="http://www.w3.org/2000/svg">
<path fill-rule="evenodd" clip-rule="evenodd" d="M14 0.734985C14.5304 0.734985 15.0391 0.946799 15.4142 1.32383C15.7893 1.70086 16 2.21223 16 2.74543V3.75065H17C17.2652 3.75065 17.5196 3.85656 17.7071 4.04508C17.8946 4.23359 18 4.48927 18 4.75588C18 5.02248 17.8946 5.27816 17.7071 5.46667C17.5196 5.65519 17.2652 5.7611 17 5.7611V16.8185C17.2652 16.8185 17.5196 16.9244 17.7071 17.113C17.8946 17.3015 18 17.5572 18 17.8238C18 18.0904 17.8946 18.3461 17.7071 18.5346C17.5196 18.7231 17.2652 18.829 17 18.829H10.5V14.3055C10.5 13.9056 10.342 13.5221 10.0607 13.2393C9.77936 12.9565 9.39782 12.7977 9 12.7977C8.60218 12.7977 8.22064 12.9565 7.93934 13.2393C7.65804 13.5221 7.5 13.9056 7.5 14.3055V18.829H1C0.734784 18.829 0.48043 18.7231 0.292893 18.5346C0.105357 18.3461 0 18.0904 0 17.8238C0 17.5572 0.105357 17.3015 0.292893 17.113C0.48043 16.9244 0.734784 16.8185 1 16.8185V5.7611C0.734784 5.7611 0.48043 5.65519 0.292893 5.46667C0.105357 5.27816 0 5.02248 0 4.75588C0 4.48927 0.105357 4.23359 0.292893 4.04508C0.48043 3.85656 0.734784 3.75065 1 3.75065H2V2.74543C2 2.21223 2.21071 1.70086 2.58579 1.32383C2.96086 0.946799 3.46957 0.734985 4 0.734985H14ZM5 10.7872C4.73478 10.7872 4.48043 10.8931 4.29289 11.0816C4.10536 11.2701 4 11.5258 4 11.7924V12.7977C4 13.0643 4.10536 13.3199 4.29289 13.5085C4.48043 13.697 4.73478 13.8029 5 13.8029C5.26522 13.8029 5.51957 13.697 5.70711 13.5085C5.89464 13.3199 6 13.0643 6 12.7977V11.7924C6 11.5258 5.89464 11.2701 5.70711 11.0816C5.51957 10.8931 5.26522 10.7872 5 10.7872ZM13 10.7872C12.7551 10.7872 12.5187 10.8776 12.3356 11.0412C12.1526 11.2049 12.0357 11.4303 12.007 11.6748L12 11.7924V12.7977C12.0003 13.0539 12.0979 13.3003 12.2728 13.4866C12.4478 13.6729 12.687 13.785 12.9414 13.8C13.1958 13.8151 13.4464 13.7318 13.6418 13.5674C13.8373 13.4029 13.9629 13.1697 13.993 12.9153L14 12.7977V11.7924C14 11.5258 13.8946 11.2701 13.7071 11.0816C13.5196 10.8931 13.2652 10.7872 13 10.7872ZM5 6.76632C4.75507 6.76635 4.51866 6.85675 4.33563 7.02035C4.15259 7.18396 4.03566 7.40941 4.007 7.65393L4 7.77154V8.77676C4.00028 9.03298 4.09788 9.27941 4.27285 9.46571C4.44782 9.65202 4.68695 9.76413 4.94139 9.77915C5.19584 9.79416 5.44638 9.71094 5.64183 9.5465C5.83729 9.38206 5.9629 9.14879 5.993 8.89438L6 8.77676V7.77154C6 7.50494 5.89464 7.24926 5.70711 7.06074C5.51957 6.87223 5.26522 6.76632 5 6.76632ZM9 6.76632C8.75507 6.76635 8.51866 6.85675 8.33563 7.02035C8.15259 7.18396 8.03566 7.40941 8.007 7.65393L8 7.77154V8.77676C8.00028 9.03298 8.09788 9.27941 8.27285 9.46571C8.44782 9.65202 8.68695 9.76413 8.94139 9.77915C9.19584 9.79416 9.44638 9.71094 9.64183 9.5465C9.83729 9.38206 9.9629 9.14879 9.993 8.89438L10 8.77676V7.77154C10 7.50494 9.89464 7.24926 9.70711 7.06074C9.51957 6.87223 9.26522 6.76632 9 6.76632ZM13 6.76632C12.7348 6.76632 12.4804 6.87223 12.2929 7.06074C12.1054 7.24926 12 7.50494 12 7.77154V8.77676C12 9.04337 12.1054 9.29905 12.2929 9.48756C12.4804 9.67608 12.7348 9.78199 13 9.78199C13.2652 9.78199 13.5196 9.67608 13.7071 9.48756C13.8946 9.29905 14 9.04337 14 8.77676V7.77154C14 7.50494 13.8946 7.24926 13.7071 7.06074C13.5196 6.87223 13.2652 6.76632 13 6.76632ZM14 2.74543H4V3.75065H14V2.74543Z" fill="#FFDBCB"/>
</svg>
