<svg width="20" height="19" viewBox="0 0 20 19" fill="none" xmlns="http://www.w3.org/2000/svg">
<path d="M0.962542 18.1668C0.783913 18.1668 0.621524 18.1226 0.475373 18.0341C0.329223 17.9457 0.21555 17.8285 0.134356 17.6825C0.0531608 17.5366 0.00866615 17.379 0.000871457 17.2098C-0.00692324 17.0406 0.0375714 16.8753 0.134356 16.7139L9.14697 1.21558C9.2444 1.05414 9.37042 0.933063 9.52501 0.852343C9.67961 0.771622 9.83778 0.731262 9.99952 0.731262C10.1613 0.731262 10.3197 0.771622 10.475 0.852343C10.6302 0.933063 10.7559 1.05414 10.8521 1.21558L19.8647 16.7139C19.9621 16.8753 20.0069 17.041 19.9991 17.2108C19.9913 17.3806 19.9465 17.5379 19.8647 17.6825C19.7828 17.8272 19.6692 17.9444 19.5237 18.0341C19.3782 18.1239 19.2158 18.1681 19.0365 18.1668H0.962542ZM9.99952 15.2609C10.2756 15.2609 10.5071 15.1679 10.6942 14.9819C10.8813 14.796 10.9745 14.5661 10.9739 14.2923C10.9732 14.0185 10.8797 13.7886 10.6932 13.6026C10.5068 13.4166 10.2756 13.3236 9.99952 13.3236C9.72345 13.3236 9.49221 13.4166 9.30579 13.6026C9.11936 13.7886 9.02583 14.0185 9.02518 14.2923C9.02453 14.5661 9.11807 14.7963 9.30579 14.9829C9.49351 15.1695 9.72475 15.2622 9.99952 15.2609ZM9.99952 12.355C10.2756 12.355 10.5071 12.262 10.6942 12.076C10.8813 11.89 10.9745 11.6601 10.9739 11.3863V8.48041C10.9739 8.20596 10.8803 7.97607 10.6932 7.79074C10.5062 7.6054 10.2749 7.51241 9.99952 7.51177C9.7241 7.51112 9.49286 7.60411 9.30579 7.79074C9.11872 7.97736 9.02518 8.20725 9.02518 8.48041V11.3863C9.02518 11.6608 9.11872 11.891 9.30579 12.077C9.49286 12.263 9.7241 12.3556 9.99952 12.355Z" fill="#FFED61"/>
</svg>
