<svg width="24" height="24" viewBox="0 0 24 24" fill="none" xmlns="http://www.w3.org/2000/svg">
<g id="Phosphor Icons Regular / Phone">
<path id="Vector (Stroke)" fill-rule="evenodd" clip-rule="evenodd" d="M7.58281 2.29337C7.90697 2.25178 8.23581 2.31788 8.51873 2.4815C8.80038 2.64438 9.02097 2.89492 9.14689 3.19484L11.0285 7.58538C11.0288 7.58601 11.0291 7.58664 11.0294 7.58727C11.1268 7.81241 11.1675 8.05801 11.1479 8.30256C11.1283 8.54779 11.0487 8.78444 10.916 8.99163L10.9111 8.99935L9.34841 11.376C10.0458 12.8145 11.209 13.9749 12.6491 14.6688L12.6521 14.6668L14.9941 13.1024C15.2019 12.962 15.4418 12.8764 15.6915 12.8534C15.9413 12.8304 16.1927 12.8708 16.4227 12.9708C16.4237 12.9712 16.4246 12.9716 16.4255 12.972L20.8053 14.853C21.1051 14.979 21.3555 15.1995 21.5183 15.4811C21.6819 15.764 21.748 16.0928 21.7064 16.417C21.5442 17.6833 20.9261 18.847 19.9678 19.6905C19.0096 20.5341 17.7768 20.9995 16.5002 20.9998C12.9197 20.9998 9.4858 19.5775 6.95406 17.0457C4.42232 14.514 3 11.0802 3 7.49979C3.00029 6.22316 3.46573 4.99021 4.30925 4.03195C5.15271 3.07374 6.31663 2.45565 7.58281 2.29337ZM8.67187 11.6998L7.99536 12.0235C7.88459 11.7921 7.83505 11.5361 7.85147 11.2801C7.86788 11.024 7.9497 10.7765 8.08911 10.561L8.09205 10.5565L9.65268 8.18288L9.65126 8.17961L7.76689 3.78273C6.86505 3.89995 6.03617 4.3403 5.43518 5.02305C4.8327 5.70748 4.50025 6.58797 4.5 7.49979M8.67187 11.6998L7.99685 12.0267C8.84248 13.7729 10.2545 15.1814 12.003 16.0225L12.0072 16.0245C12.2426 16.136 12.503 16.1842 12.7627 16.1645C13.0217 16.1448 13.2712 16.0582 13.4867 15.9131C13.4873 15.9128 13.4879 15.9124 13.4884 15.912L15.8291 14.3484L20.2165 16.2327L20.2177 16.2332C20.1005 17.135 19.6595 17.9636 18.9767 18.5646C18.2923 19.1671 17.4118 19.4995 16.5 19.4998M4.5 7.49979C4.50004 10.6823 5.76432 13.7347 8.01472 15.9851C10.2651 18.2355 13.3175 19.4997 16.5 19.4998" fill="white"/>
</g>
</svg>
